<svg id="_x31_1.graduate" enable-background="new 0 0 195 195" height="512" viewBox="0 0 195 195" width="512" xmlns="http://www.w3.org/2000/svg"><g id="icon_75_"><path d="m144 92.5c-13.8 4.5-27.7 9.2-41.6 13.5-2.3.7-5.3.7-7.6 0-6.4-1.7-12.6-4-18.8-6-8.1-2.6-16.3-5.3-25.3-8.2.3 3.7-2.6 6.6.3 9.4 4.8 4.6 5.9 9.9 2.8 15.7-1.3 2.3-.8 3.7 1.2 4.8 3.7 2 7.2 4.2 11.1 5.6 17.3 6.1 35 6.1 52.8 3.3 8.4-1.3 16.6-3.6 23.3-9.1 2.3-1.9 4.8-4.8 5.1-7.5.7-7.3.2-14.8.2-22.6-1.4.4-2.4.7-3.5 1.1z"/><path d="m171.8 74.5c-.1 0-.2.1-.3.1-23.8 8.1-47.6 16-71.4 23.9-.8.3-1.8.4-2.6.1-10.1-3.4-20.3-6.8-30.8-10.3l-18-5.9c-5.1 4.2-6.5 10.8-7.2 17.6-.1.8.8 1.8 1.4 2.6 2.8 3.3 2.7 6.8.5 10.5-.9 1.5-1 3.6-1 5.4.1 5.5.7 11.1.5 16.6-.2 5.7-2.6 10.6-7.4 13.9-1.5 1-3.9 1.8-5.4 1.3-2-.6-3.9-1.5-5.9-2.5-2.6-1.3-3.3-4.7-1.5-6.9.6-.7 1.1-1.4 1.7-2 5.3-6.1 8.3-13.3 9.4-21.3.1-1.1-.5-2.6-1.2-3.4-3.7-3.9-3.8-8-.3-12 .9-1.1 1.9-2.5 2.1-3.8.7-6.6 2.6-12.6 6.5-18.6-4.2-1.4-8.2-2.8-12.2-4.2-1.3-.4-2.8-.7-3.9-1.5-1-.7-2.5-1.9-2.3-3 .3-1.4 1.3-2.1 2.3-2.5 5.1-2 10.2-3.8 15.3-5.6 18.3-6.1 36.6-12.2 55-18.2 1.9-.6 4.4-.8 6.3-.2 22.4 7.3 44.8 14.8 67.2 22.3 1.1.4 2.2.9 3.3 1.4 2.1 1.5 2.3 5-.1 6.2z"/></g></svg>