<svg xmlns="http://www.w3.org/2000/svg" xmlns:xlink="http://www.w3.org/1999/xlink" viewBox="0 0 702.5 294"><defs><style>.cls-1,.cls-3{fill:none;}.cls-2{fill:#f2b622;}.cls-3{stroke:#eaa200;stroke-miterlimit:10;stroke-width:3px;}.cls-4{clip-path:url(#clip-path);}.cls-5{fill:#0071bc;}.cls-6{fill:#009245;}.cls-7{fill:#662d91;}.cls-8{fill:#c1272d;}.cls-9{fill:#39b54a;}</style><clipPath id="clip-path" transform="translate(-303.5 -327)"><rect class="cls-1" x="304" y="349" width="729" height="134"/></clipPath></defs><title>CROWN_TILE</title><g id="Camada_2" data-name="Camada 2"><rect class="cls-2" x="0.5" y="131" width="702" height="163"/><line class="cls-3" x1="0.5" y1="260" x2="702.5" y2="260"/><line class="cls-3" x1="702.5" y1="230" x2="0.5" y2="230"/><g class="cls-4"><path class="cls-2" d="M1006,461c-31.37,0-56.75-59.71-56.75-133.5,0,73.79-25.38,133.5-56.75,133.5H885c-31.37,0-56.75-59.71-56.75-133.5,0,73.79-25.38,133.5-56.75,133.5h.5c-31.37,0-56.75-59.71-56.75-133.5,0,73.79-25.38,133.5-56.75,133.5H651c-31.37,0-56.75-59.71-56.75-133.5,0,73.79-25.38,133.5-56.75,133.5l.5-.5c-31.37,0-56.75-59.71-56.75-133.5,0,73.79-25.38,133.5-56.75,133.5H417c-31.37,0-56.75-59.71-56.75-133.5,0,73.79-25.38,133.5-56.75,133.5Z" transform="translate(-303.5 -327)"/></g><circle class="cls-5" cx="56.5" cy="18" r="10"/><circle class="cls-6" cx="177.5" cy="18" r="10"/><circle class="cls-7" cx="291.5" cy="18" r="10"/><circle class="cls-5" cx="412.5" cy="18" r="10"/><circle class="cls-8" cx="525.5" cy="18" r="10"/><circle class="cls-9" cx="646.5" cy="18" r="10"/></g></svg>